<svg xmlns="http://www.w3.org/2000/svg" width="24" height="24" fill="none" viewBox="0 0 24 24">
  <rect width="20" height="20" x="2" y="2" rx="4" ry="4" fill="#2563eb" />
  <path
    fill="#fff"
    d="M8.75 7a2.25 2.25 0 1 1 0 4.5A2.25 2.25 0 0 1 8.75 7Zm6.5 0a2.25 2.25 0 1 1 0 4.5 2.25 2.25 0 0 1 0-4.5Zm-9.519 7.58a.75.75 0 0 1 1.038-.206l1.556 1.037a1.25 1.25 0 0 0 1.564-.14l1.866-1.866a.75.75 0 0 1 1.06 0l1.866 1.866a1.25 1.25 0 0 0 1.564.14l1.556-1.037a.75.75 0 0 1 .832 1.244l-1.556 1.037a2.75 2.75 0 0 1-3.442-.308l-1.336-1.336-1.336 1.336a2.75 2.75 0 0 1-3.442.308l-1.556-1.037a.75.75 0 0 1-.206-1.038Z"
  />
</svg>
